<svg id="visual" viewBox="0 0 960 540" width="960" height="540" xmlns="http://www.w3.org/2000/svg" xmlns:xlink="http://www.w3.org/1999/xlink" version="1.1"><rect x="0" y="0" width="960" height="540" fill="#292929"></rect><path d="M0 445L17.8 441.5C35.7 438 71.3 431 106.8 426.3C142.3 421.7 177.7 419.3 213.2 421.3C248.7 423.3 284.3 429.7 320 429.8C355.7 430 391.3 424 426.8 422.5C462.3 421 497.7 424 533.2 423.7C568.7 423.3 604.3 419.7 640 420.2C675.7 420.7 711.3 425.3 746.8 428.5C782.3 431.7 817.7 433.3 853.2 433C888.7 432.7 924.3 430.3 942.2 429.2L960 428L960 541L942.2 541C924.3 541 888.7 541 853.2 541C817.7 541 782.3 541 746.8 541C711.3 541 675.7 541 640 541C604.3 541 568.7 541 533.2 541C497.7 541 462.3 541 426.8 541C391.3 541 355.7 541 320 541C284.3 541 248.7 541 213.2 541C177.7 541 142.3 541 106.8 541C71.3 541 35.7 541 17.8 541L0 541Z" fill="#00fca8"></path><path d="M0 451L17.8 451.8C35.7 452.7 71.3 454.3 106.8 452.5C142.3 450.7 177.7 445.3 213.2 445C248.7 444.7 284.3 449.3 320 452C355.7 454.7 391.3 455.3 426.8 453.7C462.3 452 497.7 448 533.2 450C568.7 452 604.3 460 640 458.5C675.7 457 711.3 446 746.8 443.3C782.3 440.7 817.7 446.3 853.2 449.7C888.7 453 924.3 454 942.2 454.5L960 455L960 541L942.2 541C924.3 541 888.7 541 853.2 541C817.7 541 782.3 541 746.8 541C711.3 541 675.7 541 640 541C604.3 541 568.7 541 533.2 541C497.7 541 462.3 541 426.8 541C391.3 541 355.7 541 320 541C284.3 541 248.7 541 213.2 541C177.7 541 142.3 541 106.8 541C71.3 541 35.7 541 17.8 541L0 541Z" fill="#00f4d8"></path><path d="M0 472L17.8 474C35.7 476 71.3 480 106.8 479.5C142.3 479 177.7 474 213.2 472.7C248.7 471.3 284.3 473.7 320 474.5C355.7 475.3 391.3 474.7 426.8 478C462.3 481.3 497.7 488.7 533.2 487C568.7 485.3 604.3 474.7 640 470.2C675.7 465.7 711.3 467.3 746.8 470.3C782.3 473.3 817.7 477.7 853.2 477C888.7 476.3 924.3 470.7 942.2 467.8L960 465L960 541L942.2 541C924.3 541 888.7 541 853.2 541C817.7 541 782.3 541 746.8 541C711.3 541 675.7 541 640 541C604.3 541 568.7 541 533.2 541C497.7 541 462.3 541 426.8 541C391.3 541 355.7 541 320 541C284.3 541 248.7 541 213.2 541C177.7 541 142.3 541 106.8 541C71.3 541 35.7 541 17.8 541L0 541Z" fill="#00e9f2"></path><path d="M0 511L17.8 509.5C35.7 508 71.3 505 106.8 505C142.3 505 177.7 508 213.2 507.2C248.7 506.3 284.3 501.7 320 502.2C355.7 502.7 391.3 508.3 426.8 510.7C462.3 513 497.7 512 533.2 513.3C568.7 514.7 604.3 518.3 640 519.3C675.7 520.3 711.3 518.7 746.8 514.3C782.3 510 817.7 503 853.2 500.5C888.7 498 924.3 500 942.2 501L960 502L960 541L942.2 541C924.3 541 888.7 541 853.2 541C817.7 541 782.3 541 746.8 541C711.3 541 675.7 541 640 541C604.3 541 568.7 541 533.2 541C497.7 541 462.3 541 426.8 541C391.3 541 355.7 541 320 541C284.3 541 248.7 541 213.2 541C177.7 541 142.3 541 106.8 541C71.3 541 35.7 541 17.8 541L0 541Z" fill="#1cdaff"></path></svg>